<svg width="70" height="70" viewBox="0 0 70 70" fill="none" xmlns="http://www.w3.org/2000/svg">
<path d="M59.7599 10.2408C46.1035 -3.41277 23.8944 -3.41277 10.238 10.2408C-3.41257 23.8943 -3.41257 46.1092 10.238 59.7627C17.0662 66.5881 26.0332 69.9991 35.0004 69.9991C43.9676 69.9991 52.9317 66.5879 59.7599 59.7627C73.4134 46.1093 73.4134 23.8943 59.7599 10.2408ZM49.4417 45.3184C50.5826 46.4594 50.5826 48.3036 49.4417 49.4445C48.8727 50.0135 48.1257 50.2995 47.3786 50.2995C46.6316 50.2995 45.8845 50.0135 45.3155 49.4445L35.0003 39.1263L24.688 49.4415C24.1161 50.0105 23.369 50.2965 22.6249 50.2965C21.8779 50.2965 21.1308 50.0105 20.5618 49.4415C19.4209 48.3006 19.4209 46.4535 20.5618 45.3154L30.8741 35.0002L20.5589 24.685C19.418 23.5441 19.418 21.697 20.5589 20.559C21.6969 19.4181 23.5441 19.4181 24.685 20.559L35.0002 30.8742L45.3154 20.559C46.4563 19.4181 48.3005 19.4181 49.4414 20.559C50.5823 21.697 50.5823 23.5441 49.4414 24.685L39.1262 35.0002L49.4417 45.3184Z" fill="#191C52"/>
</svg>
