<svg width="20" height="20" viewBox="0 0 20 20" fill="none" xmlns="http://www.w3.org/2000/svg">
<path d="M9.41406 15.5853H6.75781V16.7572H9.41406V15.5853Z" fill="white"/>
<path d="M5.58594 15.5853H2.92969V16.7572H5.58594V15.5853Z" fill="white"/>
<path d="M13.2422 15.5853H10.5859V16.7572H13.2422V15.5853Z" fill="white"/>
<path d="M18.2422 5.66345H15.819C15.751 6.26587 15.5899 6.85958 15.3358 7.42126H18.2422V17.9291H1.75781V7.42126H4.66418C4.41012 6.85958 4.24902 6.26587 4.18098 5.66345H1.75781C0.791016 5.66345 0 6.45447 0 7.42126V17.9291C0 18.8959 0.791016 19.6869 1.75781 19.6869H18.2422C19.209 19.6869 20 18.8959 20 17.9291V7.42126C20 6.45447 19.209 5.66345 18.2422 5.66345Z" fill="white"/>
<path d="M17.0703 15.5853H14.4141V16.7572H17.0703V15.5853Z" fill="white"/>
<path d="M10 13.2871L5.8568 9.14385C5.68133 8.96838 5.51941 8.78436 5.3709 8.59326H2.92969V14.4136H17.0703V8.59326H14.6291C14.4806 8.78436 14.3187 8.96838 14.1432 9.14385L10 13.2871Z" fill="white"/>
<path d="M13.3143 8.31518C15.142 6.48752 15.142 3.51374 13.3143 1.68604C12.429 0.800688 11.2518 0.31311 9.99977 0.31311C8.74769 0.31311 7.57055 0.800688 6.6852 1.68604C4.85754 3.51374 4.85754 6.48752 6.6852 8.31518L9.99977 11.6297L13.3143 8.31518ZM6.48414 5.00061C6.48414 3.06209 8.06125 1.48499 9.99977 1.48499C11.9383 1.48499 13.5154 3.06209 13.5154 5.00061C13.5154 6.93913 11.9383 8.51624 9.99977 8.51624C8.06125 8.51624 6.48414 6.93913 6.48414 5.00061Z" fill="white"/>
<path d="M10 7.34436C11.2944 7.34436 12.3438 6.29503 12.3438 5.00061C12.3438 3.70619 11.2944 2.65686 10 2.65686C8.70558 2.65686 7.65625 3.70619 7.65625 5.00061C7.65625 6.29503 8.70558 7.34436 10 7.34436Z" fill="white"/>
</svg>
