<svg width="24" height="24" viewBox="0 0 24 24" fill="none" xmlns="http://www.w3.org/2000/svg">
<g clip-path="url(#clip0_1_7751)">
<path d="M2.77537 10.0938L1.50928 11.3636H2.77537V10.0938Z" fill="#088FAF"/>
<path d="M21.2217 10.0938L22.4882 11.3636H21.2217V10.0938Z" fill="#088FAF"/>
<path d="M21.2371 5.12125C21.2371 4.99694 21.1877 4.87773 21.0998 4.78984L16.4395 0.129531C16.3516 0.0416175 16.2324 -0.00778595 16.1081 -0.0078125H3.24463C3.12031 -0.0078125 3.00108 0.0415735 2.91317 0.129481C2.82526 0.217389 2.77588 0.336617 2.77588 0.460938V23.5234C2.77588 23.6478 2.82526 23.767 2.91317 23.8549C3.00108 23.9428 3.12031 23.9922 3.24463 23.9922H20.7684C20.8927 23.9922 21.0119 23.9428 21.0998 23.8549C21.1877 23.767 21.2371 23.6478 21.2371 23.5234V5.12125Z" fill="#F1F1F1"/>
<path d="M21.2215 5.00453C21.2011 4.92326 21.1589 4.84906 21.0996 4.78984L16.4393 0.129531C16.3514 0.0416174 16.2322 -0.00778595 16.1079 -0.0078125V4.44156C16.1079 4.59074 16.1672 4.73382 16.2727 4.83931C16.3782 4.9448 16.5212 5.00406 16.6704 5.00406L21.2215 5.00453Z" fill="#CCCCCC"/>
<path d="M21.2215 5.00781H16.6709C16.5217 5.00781 16.3786 4.94855 16.2732 4.84306C16.1677 4.73757 16.1084 4.5945 16.1084 4.44531V4.92109C16.1084 5.23187 16.3015 5.62422 16.6887 5.62422H21.2356V5.12453C21.2386 5.08508 21.2338 5.04543 21.2215 5.00781Z" fill="#E8E8E8"/>
<path d="M22.13 19.3206H1.86963C1.74531 19.3206 1.62608 19.2712 1.53817 19.1833C1.45026 19.0954 1.40088 18.9762 1.40088 18.8519V11.6641C1.40088 11.5397 1.45026 11.4205 1.53817 11.3326C1.62608 11.2447 1.74531 11.1953 1.86963 11.1953H22.13C22.2543 11.1953 22.3735 11.2447 22.4614 11.3326C22.5493 11.4205 22.5987 11.5397 22.5987 11.6641V18.8514C22.5988 18.913 22.5867 18.974 22.5632 19.0309C22.5396 19.0879 22.5051 19.1396 22.4616 19.1832C22.418 19.2267 22.3663 19.2613 22.3094 19.2849C22.2525 19.3085 22.1915 19.3206 22.13 19.3206Z" fill="#29ABE1"/>
<path d="M2.77539 19.3203H21.2371V19.9283H2.77539V19.3203Z" fill="#E0E0E0"/>
<path d="M5.60056 17.0725C5.56431 17.0327 5.53649 16.9861 5.51876 16.9354C5.50104 16.8846 5.49378 16.8308 5.49743 16.7771V14.2679C5.4913 14.2141 5.49739 14.1596 5.51525 14.1085C5.5331 14.0574 5.56226 14.0109 5.60056 13.9726C5.63885 13.9343 5.6853 13.9052 5.73643 13.8873C5.78756 13.8695 5.84206 13.8634 5.89587 13.8695H6.84368C7.20993 13.8695 7.52493 13.9359 7.78868 14.0687C8.04464 14.1929 8.25707 14.3916 8.39806 14.6387C8.53868 14.8859 8.60899 15.1798 8.60899 15.5204C8.60899 15.8611 8.53946 16.1579 8.4004 16.4111C8.26214 16.6587 8.05079 16.8576 7.79524 16.9806C7.53149 17.1118 7.21493 17.1775 6.84556 17.1775H5.89587C5.84211 17.1808 5.78823 17.1732 5.73748 17.1551C5.68673 17.1371 5.64016 17.109 5.60056 17.0725ZM6.78228 16.4818C7.10446 16.4818 7.34603 16.4028 7.50696 16.2446C7.6679 16.0865 7.74837 15.8451 7.74837 15.5204C7.74837 15.1951 7.6679 14.9543 7.50696 14.7981C7.34603 14.6418 7.10446 14.5637 6.78228 14.5637H6.3604V16.4818H6.78228Z" fill="white"/>
<path d="M9.81481 17.01C9.56914 16.8742 9.36917 16.6687 9.24012 16.4194C9.10741 16.1386 9.03857 15.8319 9.03857 15.5213C9.03857 15.2107 9.10741 14.9039 9.24012 14.6231C9.36885 14.3741 9.56894 14.1691 9.81481 14.0344C10.0881 13.8987 10.3891 13.8281 10.6942 13.8281C10.9993 13.8281 11.3003 13.8987 11.5736 14.0344C11.8191 14.1691 12.0184 14.3745 12.1454 14.6241C12.2771 14.9053 12.3451 15.212 12.3447 15.5225C12.3443 15.8329 12.2754 16.1395 12.1431 16.4203C12.014 16.6696 11.8141 16.8751 11.5684 17.011C11.2966 17.1484 10.9962 17.22 10.6916 17.22C10.387 17.22 10.0866 17.1484 9.81481 17.011V17.01ZM11.2801 16.2928C11.4208 16.116 11.4911 15.8588 11.4911 15.5213C11.4911 15.1838 11.42 14.9274 11.2778 14.752C11.1359 14.5767 10.9414 14.4892 10.6942 14.4895C10.447 14.4899 10.2515 14.5766 10.1078 14.7497C9.96715 14.9231 9.89684 15.1803 9.89684 15.5213C9.89684 15.8622 9.96715 16.1202 10.1078 16.2952C10.2484 16.4702 10.4439 16.5577 10.6942 16.5577C10.9445 16.5577 11.1398 16.4694 11.2801 16.2928Z" fill="white"/>
<path d="M13.5524 17.0162C13.3057 16.881 13.1048 16.6754 12.9754 16.4256C12.8412 16.1452 12.7715 15.8383 12.7715 15.5275C12.7715 15.2166 12.8412 14.9097 12.9754 14.6294C13.1049 14.3795 13.3058 14.1738 13.5524 14.0383C13.853 13.8862 14.1884 13.8161 14.5248 13.8351C14.8611 13.854 15.1866 13.9613 15.4682 14.1461C15.5154 14.1773 15.5547 14.219 15.5831 14.268C15.6084 14.3205 15.6204 14.3784 15.6182 14.4367C15.6207 14.526 15.5917 14.6133 15.5362 14.6833C15.513 14.7144 15.4829 14.7398 15.4483 14.7573C15.4136 14.7748 15.3753 14.7839 15.3365 14.7841C15.2934 14.7847 15.2505 14.7776 15.2099 14.763C15.1641 14.7447 15.1201 14.7219 15.0787 14.695C14.982 14.635 14.878 14.5878 14.7693 14.5544C14.6718 14.5262 14.5708 14.512 14.4693 14.5122C14.1909 14.5122 13.9837 14.5958 13.8477 14.763C13.7118 14.9302 13.6438 15.1842 13.6438 15.5252C13.6438 15.8689 13.7118 16.1245 13.8477 16.292C13.9837 16.4595 14.1909 16.5431 14.4693 16.5428C14.5619 16.5422 14.6537 16.5264 14.7412 16.4959C14.8288 16.4664 14.9413 16.42 15.0787 16.3576C15.1443 16.323 15.1931 16.2995 15.224 16.2869C15.2601 16.2739 15.2982 16.2677 15.3365 16.2686C15.3753 16.2686 15.4136 16.2777 15.4483 16.2952C15.483 16.3127 15.5131 16.3381 15.5362 16.3694C15.5917 16.4392 15.6207 16.5263 15.6182 16.6155C15.62 16.6729 15.6079 16.73 15.5831 16.7819C15.5553 16.8319 15.5159 16.8745 15.4682 16.9061C15.161 17.1179 14.7951 17.2279 14.422 17.2206C14.1194 17.2282 13.8199 17.1579 13.5524 17.0162Z" fill="white"/>
<path d="M18.7791 16.8089C18.7795 16.8619 18.7686 16.9144 18.7472 16.9628C18.7258 17.0113 18.6943 17.0547 18.6549 17.0902C18.6185 17.128 18.5748 17.1581 18.5265 17.1788C18.4782 17.1994 18.4262 17.2101 18.3737 17.2102C18.3185 17.2097 18.2641 17.1969 18.2146 17.1725C18.1651 17.1482 18.1217 17.113 18.0877 17.0695L17.281 16.1034L16.4626 17.0667C16.4292 17.1097 16.3866 17.1447 16.338 17.169C16.2893 17.1933 16.2358 17.2064 16.1813 17.2073C16.1286 17.2071 16.0765 17.1961 16.0281 17.1751C15.9798 17.1541 15.9362 17.1234 15.9001 17.085C15.861 17.0493 15.8298 17.0058 15.8084 16.9574C15.7871 16.909 15.776 16.8567 15.7759 16.8038C15.777 16.7103 15.812 16.6203 15.8743 16.5506L16.7748 15.5095L15.8978 14.4919C15.8338 14.4226 15.7971 14.3325 15.7946 14.2383C15.7946 14.1857 15.8057 14.1337 15.8271 14.0856C15.8485 14.0376 15.8797 13.9946 15.9188 13.9594C15.9559 13.9216 16.0001 13.8916 16.0489 13.8711C16.0976 13.8505 16.15 13.8399 16.2029 13.8398C16.258 13.8404 16.3124 13.8534 16.3618 13.8777C16.4113 13.902 16.4547 13.9371 16.4888 13.9805L17.2815 14.918L18.0695 13.9805C18.1012 13.9369 18.1428 13.9014 18.1909 13.877C18.2389 13.8525 18.2921 13.8398 18.346 13.8398C18.3989 13.8399 18.4511 13.8506 18.4998 13.8711C18.5485 13.8916 18.5926 13.9216 18.6296 13.9594C18.6687 13.9946 18.7 14.0376 18.7214 14.0856C18.7428 14.1337 18.7538 14.1857 18.7538 14.2383C18.7528 14.3319 18.7178 14.422 18.6554 14.4919L17.7784 15.5095L18.6741 16.5506C18.7405 16.6204 18.778 16.7127 18.7791 16.8089Z" fill="white"/>
</g>
<defs>
<clipPath id="clip0_1_7751">
<rect width="24" height="24" fill="white"/>
</clipPath>
</defs>
</svg>
