<svg width="20" height="20" viewBox="0 0 20 20" fill="none" xmlns="http://www.w3.org/2000/svg">
<path fill-rule="evenodd" clip-rule="evenodd" d="M0 9.9998C0 4.4774 4.4771 0 9.99973 0C15.5224 0 20 4.47713 20 9.9998C20 15.5225 15.5224 20 9.99973 20C4.4771 20 0 15.5222 0 9.9998ZM13.8037 8.14613L14.7535 7.19633C14.8655 7.08447 14.8655 6.90273 14.7536 6.79087L13.2255 5.26307C13.1136 5.15107 12.9319 5.15107 12.82 5.26273L5.18863 12.8944L5.19777 12.9035C5.11163 12.9558 5.04857 13.0412 5.0259 13.1423L4.6241 14.9447C4.5961 15.0701 4.63396 15.2009 4.7249 15.2915C4.79577 15.3626 4.89137 15.4013 4.98977 15.4013C5.0169 15.4013 5.04437 15.3984 5.07137 15.3923L6.87425 14.9903C6.97545 14.9679 7.06065 14.9049 7.11305 14.8187L7.12205 14.8277L7.59458 14.3551L5.6613 12.4219L6.39478 11.6884L8.32806 13.6215L13.0702 8.87973L11.1368 6.94633L11.8703 6.21287L13.8037 8.14613Z" fill="#B1B1B1"/>
</svg>
