<svg width="85" height="83" viewBox="0 0 85 83" fill="none" xmlns="http://www.w3.org/2000/svg">
<path d="M13.9688 63.6765C13.637 63.1003 12.8862 62.9082 12.31 63.24L9.27175 65.0035V61.4939C9.27175 60.8304 8.73046 60.2891 8.06694 60.2891C7.40343 60.2891 6.86214 60.8304 6.86214 61.4939V65.0035L3.82393 63.24C3.24772 62.9082 2.49689 63.1003 2.16514 63.6765C1.83338 64.2527 2.02545 65.0035 2.60166 65.3353L5.65733 67.1163L2.60166 68.8973C2.02545 69.2291 1.83338 69.9799 2.16514 70.5561C2.49689 71.1323 3.24772 71.3244 3.82393 70.9926L6.86214 69.2291V72.7387C6.86214 73.4022 7.40343 73.9435 8.06694 73.9435C8.73046 73.9435 9.27175 73.4022 9.27175 72.7387V69.2291L12.31 70.9926C12.8862 71.3244 13.637 71.1323 13.9688 70.5561C14.3005 69.9799 14.1084 69.2291 13.5322 68.8973L10.4766 67.1163L13.5322 65.3353C14.1084 64.9861 14.318 64.2527 13.9688 63.6765Z" fill="#191C52"/>
<path d="M25.1263 70.5387C25.4581 71.1149 26.2089 71.3069 26.7851 70.9752L29.8233 69.2116V72.7213C29.8233 73.3848 30.3646 73.9261 31.0281 73.9261C31.6916 73.9261 32.2329 73.3848 32.2329 72.7213V69.2116L35.2711 70.9752C35.8474 71.3069 36.5982 71.1149 36.9299 70.5387C37.2617 69.9624 37.0696 69.2116 36.4934 68.8799L33.4377 67.0988L36.4934 65.3178C37.0696 64.9861 37.2617 64.2352 36.9299 63.659C36.5982 63.0828 35.8474 62.8908 35.2711 63.2225L32.2329 64.9861V61.4764C32.2329 60.8129 31.6916 60.2716 31.0281 60.2716C30.3646 60.2716 29.8233 60.8129 29.8233 61.4764V64.9861L26.7851 63.24C26.2089 62.9082 25.4581 63.1003 25.1263 63.6765C24.7946 64.2527 24.9866 65.0035 25.5628 65.3353L28.6185 67.1163L25.5628 68.8799C24.9866 69.2116 24.7946 69.9624 25.1263 70.5387Z" fill="#191C52"/>
<path d="M22.9612 79.6881V81.8184C22.9612 82.3247 23.3802 82.7438 23.8866 82.7438H38.1871C38.6935 82.7438 39.1126 82.3247 39.1126 81.8184V79.6881C39.1126 79.1818 38.6935 78.7627 38.1871 78.7627H23.8866C23.3628 78.7627 22.9612 79.1818 22.9612 79.6881Z" fill="#191C52"/>
<path d="M57.8132 20.1463H57.7085V15.3969C57.7085 7.13784 50.9511 0.118527 42.7095 0.258214C34.6949 0.397902 28.1994 6.96323 28.1994 15.0127V15.4667C28.1994 16.1477 28.7582 16.7064 29.4392 16.7064H33.4028C34.0838 16.7064 34.6425 16.1477 34.6425 15.4667V15.327C34.6425 10.8919 37.9776 6.99815 42.4127 6.71877C47.2319 6.42194 51.2479 10.2459 51.2479 14.9953V20.1288H39.0252V20.1463H27.728C25.6327 20.2161 23.939 21.9098 23.939 24.0226V45.4996C23.939 47.6473 25.6851 49.3934 27.8328 49.3934H57.7958C59.9435 49.3934 61.6896 47.6473 61.6896 45.4996V24.0401C61.707 21.8924 59.9609 20.1463 57.8132 20.1463ZM45.1366 35.7389C44.8397 35.9484 44.7524 36.1754 44.7524 36.5247C44.7699 38.0961 44.7699 39.6676 44.7524 41.2566C44.7874 41.9201 44.4556 42.5487 43.8619 42.8455C42.4825 43.544 41.1031 42.5662 41.1031 41.2566C41.1031 41.2566 41.1031 41.2566 41.1031 41.2391C41.1031 39.6676 41.1031 38.0787 41.1031 36.5072C41.1031 36.1929 41.0333 35.9659 40.7539 35.7564C39.3221 34.7087 38.8506 32.9102 39.5665 31.3213C40.265 29.7847 41.9587 28.8767 43.5476 29.2085C45.3286 29.5577 46.5684 31.007 46.5858 32.7705C46.6382 34.0103 46.1319 35.023 45.1366 35.7389Z" fill="#191C52"/>
<path d="M45.9049 79.6881V81.8184C45.9049 82.3247 46.324 82.7438 46.8303 82.7438H61.1309C61.6372 82.7438 62.0563 82.3247 62.0563 81.8184V79.6881C62.0563 79.1818 61.6372 78.7627 61.1309 78.7627H46.8303C46.324 78.7627 45.9049 79.1818 45.9049 79.6881Z" fill="#191C52"/>
<path d="M48.07 70.5387C48.4018 71.1149 49.1526 71.3069 49.7288 70.9752L52.767 69.2116V72.7213C52.767 73.3848 53.3083 73.9261 53.9719 73.9261C54.6354 73.9261 55.1767 73.3848 55.1767 72.7213V69.2116L58.2149 70.9752C58.7911 71.3069 59.5419 71.1149 59.8737 70.5387C60.2054 69.9624 60.0133 69.2116 59.4371 68.8799L56.3815 67.0988L59.4371 65.3178C60.0133 64.9861 60.2054 64.2352 59.8737 63.659C59.5419 63.0828 58.7911 62.8908 58.2149 63.2225L55.1767 64.9861V61.4764C55.1767 60.8129 54.6354 60.2716 53.9719 60.2716C53.3083 60.2716 52.767 60.8129 52.767 61.4764V64.9861L49.7288 63.2225C49.1526 62.8908 48.4018 63.0828 48.07 63.659C47.7383 64.2352 47.9304 64.9861 48.5066 65.3178L51.5622 67.0988L48.5066 68.8799C47.9304 69.2116 47.7383 69.9624 48.07 70.5387Z" fill="#191C52"/>
<path d="M84.0746 78.7627H69.7741C69.2677 78.7627 68.8486 79.1818 68.8486 79.6881V81.8184C68.8486 82.3247 69.2677 82.7438 69.7741 82.7438H84.0746C84.581 82.7438 85 82.3247 85 81.8184V79.6881C85 79.1818 84.581 78.7627 84.0746 78.7627Z" fill="#191C52"/>
<path d="M0.925431 82.7438H15.226C15.7323 82.7438 16.1514 82.3247 16.1514 81.8184V79.6881C16.1514 79.1818 15.7323 78.7627 15.226 78.7627H0.925431C0.419063 78.7627 0 79.1818 0 79.6881V81.8184C0 82.3247 0.419063 82.7438 0.925431 82.7438Z" fill="#191C52"/>
<path d="M71.0312 70.5387C71.363 71.1149 72.1138 71.3069 72.69 70.9752L75.7282 69.2116V72.7213C75.7282 73.3848 76.2695 73.9261 76.933 73.9261C77.5966 73.9261 78.1378 73.3848 78.1378 72.7213V69.2116L81.1761 70.9752C81.7523 71.3069 82.5031 71.1149 82.8348 70.5387C83.1666 69.9624 82.9745 69.2116 82.3983 68.8799L79.3427 67.0988L82.3983 65.3178C82.9745 64.9861 83.1666 64.2352 82.8348 63.659C82.5031 63.0828 81.7523 62.8908 81.1761 63.2225L78.1378 64.9861V61.4764C78.1378 60.8129 77.5966 60.2716 76.933 60.2716C76.2695 60.2716 75.7282 60.8129 75.7282 61.4764V64.9861L72.69 63.2225C72.1138 62.8908 71.363 63.0828 71.0312 63.659C70.6995 64.2352 70.8915 64.9861 71.4678 65.3178L74.5234 67.0988L71.4678 68.8799C70.8915 69.2116 70.682 69.9624 71.0312 70.5387Z" fill="#191C52"/>
</svg>
