<svg width="22" height="24" viewBox="0 0 22 24" fill="none" xmlns="http://www.w3.org/2000/svg">
<path d="M21.9987 19.4555L21.7477 19.2341C21.0356 18.5997 20.4124 17.8721 19.8948 17.0711C19.3295 15.9657 18.9907 14.7585 18.8982 13.5203V9.87357C18.9031 7.92884 18.1977 6.04925 16.9144 4.58796C15.6312 3.12667 13.8585 2.18426 11.9295 1.9378V0.985512C11.9295 0.724138 11.8257 0.473469 11.6408 0.28865C11.456 0.10383 11.2054 0 10.944 0C10.6826 0 10.4319 0.10383 10.2471 0.28865C10.0623 0.473469 9.95847 0.724138 9.95847 0.985512V1.95257C8.04669 2.21679 6.29544 3.1649 5.02908 4.62128C3.76272 6.07766 3.06707 7.94362 3.07096 9.87357V13.5203C2.9785 14.7585 2.63968 15.9657 2.07437 17.0711C1.56566 17.8701 0.952436 18.5976 0.250992 19.2341L0 19.4555V21.5373H21.9987V19.4555Z" fill="#28252C"/>
<path d="M9.05664 22.312C9.12138 22.7799 9.35325 23.2087 9.70943 23.519C10.0656 23.8293 10.5221 24.0002 10.9944 24.0002C11.4668 24.0002 11.9233 23.8293 12.2795 23.519C12.6356 23.2087 12.8675 22.7799 12.9322 22.312H9.05664Z" fill="#28252C"/>
</svg>
