<svg width="46" height="36" viewBox="0 0 46 36" fill="none" xmlns="http://www.w3.org/2000/svg">
<path d="M24.1792 2.8927L7.843 11.2566L1.34961 8.06162L17.3979 0.137248C17.7578 -0.0457493 18.1898 -0.0457493 18.5678 0.137248L24.1792 2.8927Z" fill="white"/>
<path d="M34.6324 8.0626L18.0096 16.2975L11.7848 13.23L10.8848 12.7725L27.239 4.41016L28.139 4.86615L34.6324 8.0626Z" fill="white"/>
<path d="M16.6767 18.6714L16.6587 36.0006L0.737988 27.6922C0.287995 27.4552 0 26.9798 0 26.4683V10.4365L6.74689 13.7605V19.6044C6.74689 20.3529 7.35888 20.9739 8.09687 20.9739C8.83486 20.9739 9.44685 20.3529 9.44685 19.6044V15.1119L10.3468 15.5499L16.6767 18.6714Z" fill="white"/>
<path d="M35.9841 10.4541L19.3793 18.653L19.3613 35.9822L36.0021 27.2928L35.9841 10.4541Z" fill="white"/>
<circle cx="38" cy="28" r="8" fill="#00AA00"/>
<circle cx="38" cy="28" r="6" fill="white"/>
<path d="M35 27.5L37 30L41 26" stroke="#00AA00" stroke-width="1.5" stroke-linecap="round" stroke-linejoin="round"/>
</svg>
