<svg width="20" height="17" viewBox="0 0 20 17" fill="none" xmlns="http://www.w3.org/2000/svg">
<path d="M20 1.2C20 0.537282 19.4627 0 18.8 0H1.2C0.537283 0 0 0.537282 0 1.2C0 1.86272 0.537283 2.4 1.2 2.4H18.8C19.4627 2.4 20 1.86267 20 1.2ZM1.2 7.20001H18.8C19.4627 7.20001 20 7.73733 20 8.40001C20 9.06273 19.4627 9.60001 18.8 9.60001H1.2C0.537283 9.60001 0 9.06273 0 8.40001C0 7.73733 0.537283 7.20001 1.2 7.20001Z" fill="black"/>
<path d="M18.8 7.20001H1.2C0.537283 7.20001 0 7.73733 0 8.40001C0 9.06273 0.537283 9.60001 1.2 9.60001H18.8C19.4627 9.60001 20 9.06273 20 8.40001C20 7.73733 19.4627 7.20001 18.8 7.20001Z" fill="black"/>
<path d="M18.8 14.2H1.2C0.537283 14.2 0 14.7373 0 15.4C0 16.0627 0.537283 16.6 1.2 16.6H18.8C19.4627 16.6 20 16.0627 20 15.4C20 14.7373 19.4627 14.2 18.8 14.2Z" fill="black"/>
</svg>
