<svg width="112" height="112" viewBox="0 0 112 112" fill="none" xmlns="http://www.w3.org/2000/svg">
<circle cx="56" cy="56" r="50" fill="#E0E0E0"/>
<path d="M55.7785 63.4674C58.9204 63.4674 61.4674 60.9204 61.4674 57.7785C61.4674 54.6366 58.9204 52.0896 55.7785 52.0896C52.6366 52.0896 50.0896 54.6366 50.0896 57.7785C50.0896 60.9204 52.6366 63.4674 55.7785 63.4674Z" fill="white"/>
<path d="M50.4444 40L47.1911 43.5556H41.5556C39.6 43.5556 38 45.1556 38 47.1111V68.4444C38 70.4 39.6 72 41.5556 72H70C71.9556 72 73.5556 70.4 73.5556 68.4444V47.1111C73.5556 45.1556 71.9556 43.5556 70 43.5556H64.3644L61.1111 40H50.4444ZM55.7778 66.6667C50.8711 66.6667 46.8889 62.6844 46.8889 57.7778C46.8889 52.8711 50.8711 48.8889 55.7778 48.8889C60.6844 48.8889 64.6667 52.8711 64.6667 57.7778C64.6667 62.6844 60.6844 66.6667 55.7778 66.6667Z" fill="white"/>
<circle cx="56" cy="56" r="55" stroke="#FF5701"/>
<circle cx="93" cy="93" r="14" fill="#FF5701" stroke="white" stroke-width="2"/>
<path d="M87.7282 94.9958L87.0178 98.0619C86.9933 98.174 86.9941 98.2901 87.0202 98.4018C87.0464 98.5135 87.0971 98.618 87.1688 98.7076C87.2405 98.7972 87.3312 98.8696 87.4345 98.9196C87.5377 98.9696 87.6509 98.9959 87.7656 98.9966C87.819 99.002 87.8729 99.002 87.9264 98.9966L91.0111 98.2862L96.9338 92.386L93.6284 89.0881L87.7282 94.9958Z" fill="white"/>
<path d="M98.7965 89.4314L96.5904 87.2253C96.4454 87.081 96.2491 87 96.0445 87C95.8399 87 95.6437 87.081 95.4986 87.2253L94.2722 88.4517L97.5738 91.7533L98.8002 90.5269C98.872 90.4548 98.9288 90.3692 98.9675 90.2751C99.0062 90.1809 99.0259 90.0801 99.0255 89.9784C99.0252 89.8766 99.0048 89.7759 98.9655 89.682C98.9262 89.5882 98.8687 89.503 98.7965 89.4314Z" fill="white"/>
</svg>
