<svg width="22" height="22" viewBox="0 0 22 22" fill="none" xmlns="http://www.w3.org/2000/svg">
<path d="M0.37937 18.2069H21.6207C21.8301 18.2069 22 18.037 22 17.8276V4.17242C22 3.96295 21.8301 3.79309 21.6207 3.79309H0.379326C0.169853 3.79309 0 3.96295 0 4.17242V17.8276C4.3869e-05 18.0371 0.169897 18.2069 0.37937 18.2069Z" fill="#F5F5F5"/>
<path d="M4.19617e-05 4.9019H22V4.17242C22 3.96295 21.8301 3.79309 21.6207 3.79309H0.379326C0.169853 3.79309 0 3.96295 0 4.17242L4.19617e-05 4.9019Z" fill="#FF4B55"/>
<path d="M4.19617e-05 8.22815H22V9.33691H4.19617e-05V8.22815Z" fill="#FF4B55"/>
<path d="M4.19617e-05 6.0105H22V7.11926H4.19617e-05V6.0105Z" fill="#FF4B55"/>
<path d="M4.19617e-05 11.5544H21.6207C21.8301 11.5544 22 11.3845 22 11.175V10.4456H4.19617e-05V11.5544Z" fill="#FF4B55"/>
<path d="M4.19617e-05 14.881H22V15.9897H4.19617e-05V14.881Z" fill="#FF4B55"/>
<path d="M0.37937 18.2069H21.6207C21.8301 18.2069 22 18.0371 22 17.8276V17.0981H4.19617e-05V17.8276C4.19617e-05 18.0371 0.169897 18.2069 0.37937 18.2069Z" fill="#FF4B55"/>
<path d="M4.19617e-05 12.6633H22V13.7721H4.19617e-05V12.6633Z" fill="#FF4B55"/>
<path d="M12.138 3.79309H21.6207C21.8301 3.79309 22 3.9629 22 4.17238V11.175C22 11.3845 21.8301 11.5543 21.6207 11.5543H12.1379C11.9284 11.5543 11.7586 11.3845 11.7586 11.175V4.17238C11.7586 3.9629 11.9285 3.79309 12.138 3.79309Z" fill="#41479B"/>
<path d="M20.935 4.66386L20.851 4.91566L20.5856 4.91767C20.5512 4.91798 20.537 4.9618 20.5646 4.98221L20.7781 5.13991L20.698 5.39295C20.6876 5.42569 20.725 5.45285 20.7529 5.43283L20.9689 5.27853L21.1848 5.43287C21.2128 5.45285 21.25 5.42574 21.2397 5.39299L21.1596 5.13995L21.3731 4.98226C21.4007 4.9618 21.3865 4.91802 21.3521 4.91772L21.0867 4.9157L21.0028 4.6639C20.9919 4.63125 20.9459 4.63125 20.935 4.66386Z" fill="#F5F5F5"/>
<path d="M20.935 5.98084L20.851 6.23264L20.5856 6.23466C20.5512 6.23496 20.537 6.27879 20.5646 6.2992L20.7781 6.45689L20.698 6.70994C20.6876 6.74268 20.725 6.76983 20.7529 6.74981L20.9689 6.59551L21.1848 6.74985C21.2128 6.76983 21.25 6.74272 21.2397 6.70998L21.1596 6.45694L21.3731 6.29924C21.4007 6.27879 21.3865 6.235 21.3521 6.2347L21.0867 6.23268L21.0028 5.98089C20.9919 5.94827 20.9459 5.94827 20.935 5.98084Z" fill="#F5F5F5"/>
<path d="M20.935 7.2981L20.851 7.5499L20.5856 7.55192C20.5512 7.55222 20.537 7.59605 20.5646 7.61646L20.7781 7.77415L20.698 8.0272C20.6876 8.05994 20.725 8.08709 20.7529 8.06707L20.9689 7.91277L21.1848 8.06711C21.2128 8.08709 21.25 8.05998 21.2397 8.02724L21.1596 7.7742L21.3731 7.6165C21.4007 7.59605 21.3865 7.55226 21.3521 7.55196L21.0867 7.54994L21.0028 7.29815C20.9919 7.26553 20.9459 7.26553 20.935 7.2981Z" fill="#F5F5F5"/>
<path d="M20.935 8.61528L20.851 8.86707L20.5856 8.86909C20.5512 8.86939 20.537 8.91322 20.5646 8.93363L20.7781 9.09132L20.698 9.34437C20.6876 9.37711 20.725 9.40427 20.7529 9.38424L20.9689 9.22994L21.1848 9.38428C21.2128 9.40427 21.25 9.37715 21.2397 9.34441L21.1596 9.09137L21.3731 8.93367C21.4007 8.91322 21.3865 8.86943 21.3521 8.86913L21.0867 8.86711L21.0028 8.61532C20.9919 8.58266 20.9459 8.58266 20.935 8.61528Z" fill="#F5F5F5"/>
<path d="M20.935 9.93245L20.851 10.1842L20.5856 10.1863C20.5512 10.1866 20.537 10.2304 20.5646 10.2508L20.7781 10.4085L20.698 10.6615C20.6876 10.6943 20.725 10.7214 20.7529 10.7014L20.9689 10.5471L21.1848 10.7015C21.2128 10.7214 21.25 10.6943 21.2397 10.6616L21.1596 10.4085L21.3731 10.2508C21.4007 10.2304 21.3865 10.1866 21.3521 10.1863L21.0867 10.1843L21.0028 9.93249C20.9919 9.89979 20.9459 9.89979 20.935 9.93245Z" fill="#F5F5F5"/>
<path d="M19.9125 5.30946L19.8285 5.56126L19.5631 5.56328C19.5287 5.56358 19.5145 5.60741 19.5422 5.62782L19.7557 5.78551L19.6756 6.03855C19.6652 6.0713 19.7025 6.09845 19.7305 6.07843L19.9464 5.92409L20.1623 6.07843C20.1903 6.09841 20.2275 6.0713 20.2172 6.03855L20.1371 5.78551L20.3507 5.62782C20.3783 5.60736 20.3641 5.56358 20.3297 5.56328L20.0643 5.56126L19.9803 5.30946C19.9695 5.27689 19.9234 5.27689 19.9125 5.30946Z" fill="#F5F5F5"/>
<path d="M19.9125 6.62675L19.8285 6.87855L19.5631 6.88057C19.5287 6.88087 19.5145 6.9247 19.5422 6.94511L19.7557 7.1028L19.6756 7.35585C19.6652 7.38859 19.7025 7.41575 19.7305 7.39572L19.9464 7.24138L20.1623 7.39572C20.1903 7.4157 20.2275 7.38863 20.2172 7.35585L20.1371 7.1028L20.3507 6.94511C20.3783 6.92466 20.3641 6.88087 20.3297 6.88057L20.0643 6.87855L19.9803 6.62675C19.9695 6.59414 19.9234 6.59414 19.9125 6.62675Z" fill="#F5F5F5"/>
<path d="M19.9125 7.94389L19.8285 8.19569L19.5631 8.19771C19.5287 8.19801 19.5145 8.24184 19.5422 8.26225L19.7557 8.41994L19.6756 8.67299C19.6652 8.70573 19.7025 8.73288 19.7305 8.71286L19.9464 8.55852L20.1623 8.71286C20.1903 8.73284 20.2275 8.70573 20.2172 8.67299L20.1371 8.41994L20.3507 8.26225C20.3783 8.2418 20.3641 8.19801 20.3297 8.19771L20.0643 8.19569L19.9803 7.94389C19.9695 7.91128 19.9234 7.91128 19.9125 7.94389Z" fill="#F5F5F5"/>
<path d="M19.9125 9.261L19.8285 9.5128L19.5631 9.51482C19.5287 9.51512 19.5145 9.55894 19.5422 9.57935L19.7557 9.73705L19.6756 9.99009C19.6652 10.0228 19.7025 10.05 19.7305 10.03L19.9464 9.87562L20.1623 10.03C20.1903 10.0499 20.2275 10.0228 20.2172 9.99009L20.1371 9.73705L20.3507 9.57935C20.3783 9.5589 20.3641 9.51512 20.3297 9.51482L20.0643 9.5128L19.9803 9.261C19.9695 9.22843 19.9234 9.22843 19.9125 9.261Z" fill="#F5F5F5"/>
<path d="M18.89 4.66374L18.8061 4.91554L18.5407 4.91756C18.5063 4.91786 18.4921 4.96169 18.5197 4.9821L18.7332 5.13979L18.6531 5.39283C18.6427 5.42558 18.6801 5.45273 18.708 5.43271L18.9239 5.27837L19.1399 5.43271C19.1678 5.45269 19.2051 5.42558 19.1948 5.39283L19.1147 5.13979L19.3282 4.9821C19.3558 4.96164 19.3416 4.91786 19.3072 4.91756L19.0418 4.91554L18.9578 4.66374C18.947 4.63113 18.9009 4.63113 18.89 4.66374Z" fill="#F5F5F5"/>
<path d="M18.89 5.98085L18.8061 6.23265L18.5407 6.23466C18.5063 6.23497 18.4921 6.27879 18.5197 6.2992L18.7332 6.4569L18.6531 6.70994C18.6427 6.74268 18.6801 6.76984 18.708 6.74982L18.9239 6.59547L19.1399 6.74982C19.1678 6.7698 19.2051 6.74268 19.1948 6.70994L19.1147 6.4569L19.3282 6.2992C19.3558 6.27875 19.3416 6.23497 19.3072 6.23466L19.0418 6.23265L18.9578 5.98085C18.947 5.94828 18.9009 5.94828 18.89 5.98085Z" fill="#F5F5F5"/>
<path d="M18.89 7.29811L18.8061 7.54991L18.5407 7.55193C18.5063 7.55223 18.4921 7.59605 18.5197 7.61646L18.7332 7.77416L18.6531 8.0272C18.6427 8.05994 18.6801 8.0871 18.708 8.06708L18.9239 7.91273L19.1399 8.06708C19.1678 8.08706 19.2051 8.05994 19.1948 8.0272L19.1147 7.77416L19.3282 7.61646C19.3558 7.59601 19.3416 7.55223 19.3072 7.55193L19.0418 7.54991L18.9578 7.29811C18.947 7.26554 18.9009 7.26554 18.89 7.29811Z" fill="#F5F5F5"/>
<path d="M18.89 8.61528L18.8061 8.86708L18.5407 8.8691C18.5063 8.8694 18.4921 8.91322 18.5197 8.93363L18.7332 9.09133L18.6531 9.34437C18.6427 9.37711 18.6801 9.40427 18.708 9.38425L18.9239 9.2299L19.1399 9.38425C19.1678 9.40423 19.2051 9.37711 19.1948 9.34437L19.1147 9.09133L19.3282 8.93363C19.3558 8.91318 19.3416 8.8694 19.3072 8.8691L19.0418 8.86708L18.9578 8.61528C18.947 8.58267 18.9009 8.58267 18.89 8.61528Z" fill="#F5F5F5"/>
<path d="M18.89 9.93245L18.8061 10.1842L18.5407 10.1863C18.5063 10.1866 18.4921 10.2304 18.5197 10.2508L18.7332 10.4085L18.6531 10.6615C18.6427 10.6943 18.6801 10.7214 18.708 10.7014L18.9239 10.5471L19.1399 10.7014C19.1678 10.7214 19.2051 10.6943 19.1948 10.6615L19.1147 10.4085L19.3282 10.2508C19.3558 10.2304 19.3416 10.1866 19.3072 10.1863L19.0418 10.1842L18.9578 9.93245C18.947 9.89979 18.9009 9.89979 18.89 9.93245Z" fill="#F5F5F5"/>
<path d="M17.8681 5.30946L17.7841 5.56126L17.5187 5.56328C17.4843 5.56358 17.4701 5.60741 17.4977 5.62782L17.7112 5.78551L17.6311 6.03855C17.6207 6.0713 17.6581 6.09845 17.6861 6.07843L17.902 5.92409L18.1179 6.07843C18.1459 6.09841 18.1831 6.0713 18.1728 6.03855L18.0927 5.78551L18.3062 5.62782C18.3338 5.60736 18.3196 5.56358 18.2853 5.56328L18.0198 5.56126L17.9359 5.30946C17.9251 5.27689 17.8789 5.27689 17.8681 5.30946Z" fill="#F5F5F5"/>
<path d="M17.8681 6.62675L17.7841 6.87855L17.5187 6.88057C17.4843 6.88087 17.4701 6.9247 17.4977 6.94511L17.7112 7.1028L17.6311 7.35585C17.6207 7.38859 17.6581 7.41575 17.6861 7.39572L17.902 7.24138L18.1179 7.39572C18.1459 7.4157 18.1831 7.38863 18.1728 7.35585L18.0927 7.1028L18.3062 6.94511C18.3338 6.92466 18.3196 6.88087 18.2853 6.88057L18.0198 6.87855L17.9359 6.62675C17.9251 6.59414 17.8789 6.59414 17.8681 6.62675Z" fill="#F5F5F5"/>
<path d="M17.8681 7.94389L17.7841 8.19569L17.5187 8.19771C17.4843 8.19801 17.4701 8.24184 17.4977 8.26225L17.7112 8.41994L17.6311 8.67299C17.6207 8.70573 17.6581 8.73288 17.6861 8.71286L17.902 8.55852L18.1179 8.71286C18.1459 8.73284 18.1831 8.70573 18.1728 8.67299L18.0927 8.41994L18.3062 8.26225C18.3338 8.2418 18.3196 8.19801 18.2853 8.19771L18.0198 8.19569L17.9359 7.94389C17.9251 7.91128 17.8789 7.91128 17.8681 7.94389Z" fill="#F5F5F5"/>
<path d="M17.8681 9.261L17.7841 9.5128L17.5187 9.51482C17.4843 9.51512 17.4701 9.55894 17.4977 9.57935L17.7112 9.73705L17.6311 9.99009C17.6207 10.0228 17.6581 10.05 17.6861 10.03L17.902 9.87562L18.1179 10.03C18.1459 10.0499 18.1831 10.0228 18.1728 9.99009L18.0927 9.73705L18.3062 9.57935C18.3338 9.5589 18.3196 9.51512 18.2853 9.51482L18.0198 9.5128L17.9359 9.261C17.9251 9.22843 17.8789 9.22843 17.8681 9.261Z" fill="#F5F5F5"/>
<path d="M16.8456 4.66374L16.7616 4.91554L16.4962 4.91756C16.4618 4.91786 16.4476 4.96169 16.4752 4.9821L16.6887 5.13979L16.6086 5.39283C16.5982 5.42558 16.6356 5.45273 16.6635 5.43271L16.8795 5.27837L17.0954 5.43271C17.1234 5.45269 17.1607 5.42558 17.1503 5.39283L17.0702 5.13979L17.2838 4.9821C17.3114 4.96164 17.2972 4.91786 17.2628 4.91756L16.9974 4.91554L16.9134 4.66374C16.9025 4.63113 16.8564 4.63113 16.8456 4.66374Z" fill="#F5F5F5"/>
<path d="M16.8456 5.98085L16.7616 6.23265L16.4962 6.23466C16.4618 6.23497 16.4476 6.27879 16.4752 6.2992L16.6887 6.4569L16.6086 6.70994C16.5982 6.74268 16.6356 6.76984 16.6635 6.74982L16.8795 6.59547L17.0954 6.74982C17.1234 6.7698 17.1607 6.74268 17.1503 6.70994L17.0702 6.4569L17.2838 6.2992C17.3114 6.27875 17.2972 6.23497 17.2628 6.23466L16.9974 6.23265L16.9134 5.98085C16.9025 5.94828 16.8564 5.94828 16.8456 5.98085Z" fill="#F5F5F5"/>
<path d="M16.8456 7.29811L16.7616 7.54991L16.4962 7.55193C16.4618 7.55223 16.4476 7.59605 16.4752 7.61646L16.6887 7.77416L16.6086 8.0272C16.5982 8.05994 16.6356 8.0871 16.6635 8.06708L16.8795 7.91273L17.0954 8.06708C17.1234 8.08706 17.1607 8.05994 17.1503 8.0272L17.0702 7.77416L17.2838 7.61646C17.3114 7.59601 17.2972 7.55223 17.2628 7.55193L16.9974 7.54991L16.9134 7.29811C16.9025 7.26554 16.8564 7.26554 16.8456 7.29811Z" fill="#F5F5F5"/>
<path d="M16.8456 8.61528L16.7616 8.86708L16.4962 8.8691C16.4618 8.8694 16.4476 8.91322 16.4752 8.93363L16.6887 9.09133L16.6086 9.34437C16.5982 9.37711 16.6356 9.40427 16.6635 9.38425L16.8795 9.2299L17.0954 9.38425C17.1234 9.40423 17.1607 9.37711 17.1503 9.34437L17.0702 9.09133L17.2838 8.93363C17.3114 8.91318 17.2972 8.8694 17.2628 8.8691L16.9974 8.86708L16.9134 8.61528C16.9025 8.58267 16.8564 8.58267 16.8456 8.61528Z" fill="#F5F5F5"/>
<path d="M16.8456 9.93245L16.7616 10.1842L16.4962 10.1863C16.4618 10.1866 16.4476 10.2304 16.4752 10.2508L16.6887 10.4085L16.6086 10.6615C16.5982 10.6943 16.6356 10.7214 16.6635 10.7014L16.8795 10.5471L17.0954 10.7014C17.1234 10.7214 17.1607 10.6943 17.1503 10.6615L17.0702 10.4085L17.2838 10.2508C17.3114 10.2304 17.2972 10.1866 17.2628 10.1863L16.9974 10.1842L16.9134 9.93245C16.9025 9.89979 16.8564 9.89979 16.8456 9.93245Z" fill="#F5F5F5"/>
<path d="M15.8231 5.30946L15.7392 5.56126L15.4738 5.56328C15.4394 5.56358 15.4252 5.60741 15.4528 5.62782L15.6663 5.78551L15.5862 6.03855C15.5758 6.0713 15.6132 6.09845 15.6411 6.07843L15.857 5.92409L16.073 6.07843C16.1009 6.09841 16.1382 6.0713 16.1279 6.03855L16.0478 5.78551L16.2613 5.62782C16.2889 5.60736 16.2747 5.56358 16.2403 5.56328L15.9749 5.56126L15.891 5.30946C15.8801 5.27689 15.834 5.27689 15.8231 5.30946Z" fill="#F5F5F5"/>
<path d="M15.8231 6.62675L15.7392 6.87855L15.4738 6.88057C15.4394 6.88087 15.4252 6.9247 15.4528 6.94511L15.6663 7.1028L15.5862 7.35585C15.5758 7.38859 15.6132 7.41575 15.6411 7.39572L15.857 7.24138L16.073 7.39572C16.1009 7.4157 16.1382 7.38863 16.1279 7.35585L16.0478 7.1028L16.2613 6.94511C16.2889 6.92466 16.2747 6.88087 16.2403 6.88057L15.9749 6.87855L15.891 6.62675C15.8801 6.59414 15.834 6.59414 15.8231 6.62675Z" fill="#F5F5F5"/>
<path d="M15.8231 7.94389L15.7392 8.19569L15.4738 8.19771C15.4394 8.19801 15.4252 8.24184 15.4528 8.26225L15.6663 8.41994L15.5862 8.67299C15.5758 8.70573 15.6132 8.73288 15.6411 8.71286L15.857 8.55852L16.073 8.71286C16.1009 8.73284 16.1382 8.70573 16.1279 8.67299L16.0478 8.41994L16.2613 8.26225C16.2889 8.2418 16.2747 8.19801 16.2403 8.19771L15.9749 8.19569L15.891 7.94389C15.8801 7.91128 15.834 7.91128 15.8231 7.94389Z" fill="#F5F5F5"/>
<path d="M15.8231 9.261L15.7392 9.5128L15.4738 9.51482C15.4394 9.51512 15.4252 9.55894 15.4528 9.57935L15.6663 9.73705L15.5862 9.99009C15.5758 10.0228 15.6132 10.05 15.6411 10.03L15.857 9.87562L16.073 10.03C16.1009 10.0499 16.1382 10.0228 16.1279 9.99009L16.0478 9.73705L16.2613 9.57935C16.2889 9.5589 16.2747 9.51512 16.2403 9.51482L15.9749 9.5128L15.891 9.261C15.8801 9.22843 15.834 9.22843 15.8231 9.261Z" fill="#F5F5F5"/>
<path d="M14.8007 4.66374L14.7167 4.91554L14.4513 4.91756C14.4169 4.91786 14.4027 4.96169 14.4303 4.9821L14.6438 5.13979L14.5638 5.39283C14.5534 5.42558 14.5907 5.45273 14.6187 5.43271L14.8346 5.27837L15.0505 5.43271C15.0785 5.45269 15.1157 5.42558 15.1054 5.39283L15.0253 5.13979L15.2388 4.9821C15.2665 4.96164 15.2522 4.91786 15.2179 4.91756L14.9525 4.91554L14.8685 4.66374C14.8577 4.63113 14.8116 4.63113 14.8007 4.66374Z" fill="#F5F5F5"/>
<path d="M14.8007 5.98085L14.7167 6.23265L14.4513 6.23466C14.4169 6.23497 14.4027 6.27879 14.4303 6.2992L14.6438 6.4569L14.5638 6.70994C14.5534 6.74268 14.5907 6.76984 14.6187 6.74982L14.8346 6.59547L15.0505 6.74982C15.0785 6.7698 15.1157 6.74268 15.1054 6.70994L15.0253 6.4569L15.2388 6.2992C15.2665 6.27875 15.2522 6.23497 15.2179 6.23466L14.9525 6.23265L14.8685 5.98085C14.8577 5.94828 14.8116 5.94828 14.8007 5.98085Z" fill="#F5F5F5"/>
<path d="M14.8007 7.29811L14.7167 7.54991L14.4513 7.55193C14.4169 7.55223 14.4027 7.59605 14.4303 7.61646L14.6438 7.77416L14.5638 8.0272C14.5534 8.05994 14.5907 8.0871 14.6187 8.06708L14.8346 7.91273L15.0505 8.06708C15.0785 8.08706 15.1157 8.05994 15.1054 8.0272L15.0253 7.77416L15.2388 7.61646C15.2665 7.59601 15.2522 7.55223 15.2179 7.55193L14.9525 7.54991L14.8685 7.29811C14.8577 7.26554 14.8116 7.26554 14.8007 7.29811Z" fill="#F5F5F5"/>
<path d="M14.8007 8.61528L14.7167 8.86708L14.4513 8.8691C14.4169 8.8694 14.4027 8.91322 14.4303 8.93363L14.6438 9.09133L14.5638 9.34437C14.5534 9.37711 14.5907 9.40427 14.6187 9.38425L14.8346 9.2299L15.0505 9.38425C15.0785 9.40423 15.1157 9.37711 15.1054 9.34437L15.0253 9.09133L15.2388 8.93363C15.2665 8.91318 15.2522 8.8694 15.2179 8.8691L14.9525 8.86708L14.8685 8.61528C14.8577 8.58267 14.8116 8.58267 14.8007 8.61528Z" fill="#F5F5F5"/>
<path d="M14.8007 9.93245L14.7167 10.1842L14.4513 10.1863C14.4169 10.1866 14.4027 10.2304 14.4303 10.2508L14.6438 10.4085L14.5638 10.6615C14.5534 10.6943 14.5907 10.7214 14.6187 10.7014L14.8346 10.5471L15.0505 10.7014C15.0785 10.7214 15.1157 10.6943 15.1054 10.6615L15.0253 10.4085L15.2388 10.2508C15.2665 10.2304 15.2522 10.1866 15.2179 10.1863L14.9525 10.1842L14.8685 9.93245C14.8577 9.89979 14.8116 9.89979 14.8007 9.93245Z" fill="#F5F5F5"/>
<path d="M13.7782 5.30946L13.6943 5.56126L13.4288 5.56328C13.3945 5.56358 13.3802 5.60741 13.4079 5.62782L13.6214 5.78551L13.5413 6.03855C13.5309 6.0713 13.5682 6.09845 13.5962 6.07843L13.8121 5.92409L14.028 6.07843C14.056 6.09841 14.0933 6.0713 14.083 6.03855L14.0029 5.78551L14.2164 5.62782C14.244 5.60736 14.2298 5.56358 14.1954 5.56328L13.93 5.56126L13.846 5.30946C13.8352 5.27689 13.7891 5.27689 13.7782 5.30946Z" fill="#F5F5F5"/>
<path d="M13.7782 6.62675L13.6943 6.87855L13.4288 6.88057C13.3945 6.88087 13.3802 6.9247 13.4079 6.94511L13.6214 7.1028L13.5413 7.35585C13.5309 7.38859 13.5682 7.41575 13.5962 7.39572L13.8121 7.24138L14.028 7.39572C14.056 7.4157 14.0933 7.38863 14.083 7.35585L14.0029 7.1028L14.2164 6.94511C14.244 6.92466 14.2298 6.88087 14.1954 6.88057L13.93 6.87855L13.846 6.62675C13.8352 6.59414 13.7891 6.59414 13.7782 6.62675Z" fill="#F5F5F5"/>
<path d="M13.7782 7.94389L13.6943 8.19569L13.4288 8.19771C13.3945 8.19801 13.3802 8.24184 13.4079 8.26225L13.6214 8.41994L13.5413 8.67299C13.5309 8.70573 13.5682 8.73288 13.5962 8.71286L13.8121 8.55852L14.028 8.71286C14.056 8.73284 14.0933 8.70573 14.083 8.67299L14.0029 8.41994L14.2164 8.26225C14.244 8.2418 14.2298 8.19801 14.1954 8.19771L13.93 8.19569L13.846 7.94389C13.8352 7.91128 13.7891 7.91128 13.7782 7.94389Z" fill="#F5F5F5"/>
<path d="M13.7782 9.261L13.6943 9.5128L13.4288 9.51482C13.3945 9.51512 13.3802 9.55894 13.4079 9.57935L13.6214 9.73705L13.5413 9.99009C13.5309 10.0228 13.5682 10.05 13.5962 10.03L13.8121 9.87562L14.028 10.03C14.056 10.0499 14.0933 10.0228 14.083 9.99009L14.0029 9.73705L14.2164 9.57935C14.244 9.5589 14.2298 9.51512 14.1954 9.51482L13.93 9.5128L13.846 9.261C13.8352 9.22843 13.7891 9.22843 13.7782 9.261Z" fill="#F5F5F5"/>
<path d="M12.7558 4.66374L12.6718 4.91554L12.4064 4.91756C12.372 4.91786 12.3578 4.96169 12.3854 4.9821L12.5989 5.13979L12.5188 5.39283C12.5084 5.42558 12.5458 5.45273 12.5737 5.43271L12.7897 5.27837L13.0056 5.43271C13.0336 5.45269 13.0708 5.42558 13.0605 5.39283L12.9804 5.13979L13.1939 4.9821C13.2215 4.96164 13.2073 4.91786 13.1729 4.91756L12.9075 4.91554L12.8236 4.66374C12.8127 4.63113 12.7667 4.63113 12.7558 4.66374Z" fill="#F5F5F5"/>
<path d="M12.7558 5.98085L12.6718 6.23265L12.4064 6.23466C12.372 6.23497 12.3578 6.27879 12.3854 6.2992L12.5989 6.4569L12.5188 6.70994C12.5084 6.74268 12.5458 6.76984 12.5737 6.74982L12.7897 6.59547L13.0056 6.74982C13.0336 6.7698 13.0708 6.74268 13.0605 6.70994L12.9804 6.4569L13.1939 6.2992C13.2215 6.27875 13.2073 6.23497 13.1729 6.23466L12.9075 6.23265L12.8236 5.98085C12.8127 5.94828 12.7667 5.94828 12.7558 5.98085Z" fill="#F5F5F5"/>
<path d="M12.7558 7.29811L12.6718 7.54991L12.4064 7.55193C12.372 7.55223 12.3578 7.59605 12.3854 7.61646L12.5989 7.77416L12.5188 8.0272C12.5084 8.05994 12.5458 8.0871 12.5737 8.06708L12.7897 7.91273L13.0056 8.06708C13.0336 8.08706 13.0708 8.05994 13.0605 8.0272L12.9804 7.77416L13.1939 7.61646C13.2215 7.59601 13.2073 7.55223 13.1729 7.55193L12.9075 7.54991L12.8236 7.29811C12.8127 7.26554 12.7667 7.26554 12.7558 7.29811Z" fill="#F5F5F5"/>
<path d="M12.7558 8.61528L12.6718 8.86708L12.4064 8.8691C12.372 8.8694 12.3578 8.91322 12.3854 8.93363L12.5989 9.09133L12.5188 9.34437C12.5084 9.37711 12.5458 9.40427 12.5737 9.38425L12.7897 9.2299L13.0056 9.38425C13.0336 9.40423 13.0708 9.37711 13.0605 9.34437L12.9804 9.09133L13.1939 8.93363C13.2215 8.91318 13.2073 8.8694 13.1729 8.8691L12.9075 8.86708L12.8236 8.61528C12.8127 8.58267 12.7667 8.58267 12.7558 8.61528Z" fill="#F5F5F5"/>
<path d="M12.7558 9.93245L12.6718 10.1842L12.4064 10.1863C12.372 10.1866 12.3578 10.2304 12.3854 10.2508L12.5989 10.4085L12.5188 10.6615C12.5084 10.6943 12.5458 10.7214 12.5737 10.7014L12.7897 10.5471L13.0056 10.7014C13.0336 10.7214 13.0708 10.6943 13.0605 10.6615L12.9804 10.4085L13.1939 10.2508C13.2215 10.2304 13.2073 10.1866 13.1729 10.1863L12.9075 10.1842L12.8236 9.93245C12.8127 9.89979 12.7667 9.89979 12.7558 9.93245Z" fill="#F5F5F5"/>
</svg>
